<svg xmlns="http://www.w3.org/2000/svg" viewBox="0 0 1387.82 868.85"><defs><style>.cls-1{fill:#eab465;opacity:0.3;}</style></defs><g id="Layer_2" data-name="Layer 2"><g id="Layer_1-2" data-name="Layer 1"><path class="cls-1" d="M89.82,504.17c69.88-15.74,176.59-210.66,134.76-282.08-57.2-97.66,34.35-181.72,86.47-208.42C366.39-14.67,517.45-1.95,562,80.38s209.12,92.69,235,48.71C837.8,59.68,983.71,10.68,1051,24.56c107,13.88,202.54,84.12,211.49,221.82,8,123.62-89.26,188-89.26,188s-75.39,35.51-60.55,88.15S1319.8,543.93,1361,597.28c72.88,94.48-17.54,230.79-93.12,255.08-253.57,81.51-429.07-169.51-499.07-97.17C697,829.42,614.62,855.06,501.25,838.87c-62.62-9-162.7-149.36-207.84-120.12-41.16,26.66-266.28,85.6-224.09-6,19.55-42.47-40.75-68-63.16-105.62C-17.79,566.83,31.87,517.23,89.82,504.17Z"/></g></g></svg>