<svg xmlns="http://www.w3.org/2000/svg" viewBox="0 0 1267.93 778.21"><defs><style>.cls-1{fill:#59f7f7;}</style></defs><g id="Layer_2" data-name="Layer 2"><g id="Layer_1-2" data-name="Layer 1"><path class="cls-1" d="M68.24,156.39s110-193.25,299-150.11c131.27,29.95,24.06,207.05,281.82,138,139-37.23,146.06,82.48,104.82,117.16s-37,117.91-6.87,150.94c48.11,52.82,168.4,40.75,228.54-16.19,103.11-97.61,210.45-43.73,242.3-12.08,36.47,36.23,61.64,143.67,44.68,195.55-23.74,72.58-132.32,114.45-218.81,110.42C983.61,687.31,784.27,581,772.78,646.4c-18,102.66-74.64,187.51-185.58,86.27-12.15-11.09-61.8-75.44-122.91-68.9-61.53,6.6-61.53-66.64-109.08-45-139.3,63.47-244-5.18-216.51-86.27C163.16,460.36,36.05,461.27,8.1,382.42-28,280.62,68.24,156.39,68.24,156.39Z"/></g></g></svg>