<svg xmlns="http://www.w3.org/2000/svg" viewBox="0 0 453.11 483.99"><defs><style>.cls-1,.cls-12{opacity:0.1;}.cls-2{fill:#898989;}.cls-3,.cls-5{fill:#565351;}.cls-4{fill:#d3d3d3;opacity:0.15;}.cls-10,.cls-5{opacity:0.5;}.cls-6{fill:#3f3f3f;}.cls-7{fill:#ff7c06;}.cls-8{fill:#d66e18;opacity:0.3;}.cls-9{fill:#ffe600;}.cls-10{fill:#f9f1bb;}.cls-11{fill:#fff;opacity:0.4;}.cls-12{fill:#331802;}</style></defs><g id="Layer_2" data-name="Layer 2"><g id="Layer_1-2" data-name="Layer 1"><path class="cls-1" d="M24.7,446.56l422.81,1s39.32,29.06-90.38,27.55c-20.39-.24-62.3,11.15-92.43,8.45S120.59,465,104.31,464.31s-75-1-83.18-3-23-5.74-20.94-9.8S17.55,446.56,24.7,446.56Z"/><rect class="cls-2" x="46.15" y="90.57" width="26.96" height="327.88"/><rect class="cls-3" x="46.15" y="241.72" width="26.96" height="51.86"/><rect class="cls-3" x="46.15" y="142.89" width="26.96" height="51.86"/><rect class="cls-4" x="63.55" y="90.57" width="7.56" height="327.88"/><path class="cls-5" d="M73.11,90.57v0c-.65.4-1.32.79-2,1.16a38.74,38.74,0,0,1-7.56,3.13,36.42,36.42,0,0,1-14.71,1.21c-.93-.11-1.83-.24-2.69-.4V90.57Z"/><polygon class="cls-6" points="89.67 444.12 29.97 444.12 46.34 418.07 73.3 418.07 89.67 444.12"/><rect class="cls-2" x="25.26" y="443.8" width="69.12" height="5.99"/><circle class="cls-7" cx="58.99" cy="46.54" r="46.54"/><circle class="cls-8" cx="58.99" cy="47.28" r="40.76"/><circle class="cls-9" cx="58.99" cy="47.28" r="38.85"/><path class="cls-10" d="M94.57,47.72C94.57,67.43,39.18,12,58.89,12A35.69,35.69,0,0,1,94.57,47.72Z"/><path class="cls-11" d="M81.77,24.93c-3,.26-30-11.36-24.2-11.9a31.7,31.7,0,0,1,13.66,2.14C79.62,18.55,86.89,24.49,81.77,24.93Z"/><polygon class="cls-4" points="87.42 443.89 78.42 443.8 63.55 418.07 71.03 417.98 87.42 443.89"/><rect class="cls-4" x="58.48" y="411.68" width="2.55" height="69.25" transform="translate(-386.55 506.06) rotate(-90)"/><rect class="cls-2" x="385.73" y="90.57" width="26.96" height="327.88"/><rect class="cls-3" x="385.72" y="241.72" width="26.96" height="51.86"/><rect class="cls-3" x="385.72" y="142.89" width="26.96" height="51.86"/><rect class="cls-4" x="403.13" y="90.57" width="7.56" height="327.88"/><path class="cls-5" d="M412.69,90.57v0c-.65.4-1.32.79-2,1.16a38.74,38.74,0,0,1-7.56,3.13,36.42,36.42,0,0,1-14.71,1.21c-.93-.11-1.83-.24-2.69-.4V90.57Z"/><polygon class="cls-6" points="429.25 444.12 369.54 444.12 385.91 418.07 412.88 418.07 429.25 444.12"/><rect class="cls-2" x="364.84" y="443.8" width="69.12" height="5.99"/><circle class="cls-7" cx="398.57" cy="46.54" r="46.54"/><circle class="cls-8" cx="398.57" cy="47.28" r="40.76"/><circle class="cls-9" cx="398.57" cy="47.28" r="38.85"/><path class="cls-10" d="M434.14,47.72c0,19.71-55.38-35.68-35.68-35.68A35.68,35.68,0,0,1,434.14,47.72Z"/><path class="cls-11" d="M421.34,24.93c-3,.26-30-11.36-24.19-11.9a31.72,31.72,0,0,1,13.66,2.14C419.19,18.55,426.47,24.49,421.34,24.93Z"/><polygon class="cls-4" points="426.99 443.89 418 443.8 403.13 418.07 410.61 417.98 426.99 443.89"/><rect class="cls-4" x="398.05" y="411.68" width="2.55" height="69.25" transform="translate(-46.98 845.63) rotate(-90)"/><rect class="cls-7" x="29.97" y="122.55" width="396.73" height="65.48"/><polygon points="59.7 122.55 29.97 174.04 29.97 122.69 30.05 122.55 59.7 122.55"/><polygon class="cls-12" points="426.7 188.03 29.97 188.03 29.97 175.4 426.7 188.03"/><polygon points="116.98 122.55 79.18 188.03 49.52 188.03 87.33 122.55 116.98 122.55"/><polygon points="176.04 122.55 138.24 188.03 108.59 188.03 146.39 122.55 176.04 122.55"/><polygon points="233.76 122.55 195.95 188.03 166.3 188.03 204.1 122.55 233.76 122.55"/><polygon points="291.6 122.55 253.79 188.03 224.13 188.03 261.94 122.55 291.6 122.55"/><polygon points="348.73 122.55 310.92 188.03 281.27 188.03 319.08 122.55 348.73 122.55"/><polygon points="406.83 122.55 369.02 188.03 339.37 188.03 377.18 122.55 406.83 122.55"/><polygon points="426.7 137.52 426.7 188.03 397.54 188.03 426.7 137.52"/><rect class="cls-7" x="29.97" y="221.64" width="396.73" height="65.48"/><polygon points="59.7 221.64 29.97 273.13 29.97 221.78 30.05 221.64 59.7 221.64"/><polygon points="116.98 221.64 79.18 287.12 49.52 287.12 87.33 221.64 116.98 221.64"/><polygon points="176.04 221.64 138.24 287.12 108.59 287.12 146.39 221.64 176.04 221.64"/><polygon points="233.76 221.64 195.95 287.12 166.3 287.12 204.1 221.64 233.76 221.64"/><polygon points="291.6 221.64 253.79 287.12 224.13 287.12 261.94 221.64 291.6 221.64"/><polygon points="348.73 221.64 310.92 287.12 281.27 287.12 319.08 221.64 348.73 221.64"/><polygon points="406.83 221.64 369.02 287.12 339.37 287.12 377.18 221.64 406.83 221.64"/><polygon points="426.7 236.61 426.7 287.12 397.54 287.12 426.7 236.61"/><polygon class="cls-12" points="426.7 287.12 29.97 287.12 29.97 274.49 426.7 287.12"/></g></g></svg>